<svg width="105" height="67" viewBox="0 0 105 67" fill="none" xmlns="http://www.w3.org/2000/svg">
<path d="M2.47998 2.48H101.68V64.48H2.47998V2.48Z" fill="#1DB954"/>
<path d="M2.47998 2.48H101.68V2.48V64.48V64.48H2.47998V64.48V2.48V2.48V2.48" stroke="black" stroke-width="4.96"/>
<path d="M14.8799 14.88H89.2799V52.08H14.8799V14.88Z" fill="white"/>
<path d="M14.8799 14.88H89.2799V14.88V52.08V52.08H14.8799V52.08V14.88V14.88V14.88" stroke="black" stroke-width="2.48"/>
<path d="M27.28 33.48C27.28 36.9019 30.0582 39.68 33.48 39.68C36.9019 39.68 39.68 36.9019 39.68 33.48C39.68 30.0581 36.9019 27.28 33.48 27.28C30.0582 27.28 27.28 30.0581 27.28 33.48Z" fill="black"/>
<path d="M64.48 33.48C64.48 36.9019 67.2581 39.68 70.68 39.68C74.1019 39.68 76.88 36.9019 76.88 33.48C76.88 30.0581 74.1019 27.28 70.68 27.28C67.2581 27.28 64.48 30.0581 64.48 33.48Z" fill="black"/>
</svg>
